# LAHAB Atelier - Drop 01 Heavyweight Architectural 520 GSM Hoodie 3D Model
# Material: Giza 86 Extra-Long Staple Loopback French Terry
# Verified Geometry: 565 vertices, 1044 polygons
g lahab_drop01_hoodie

v 0.5800 -1.1000 0.0000
v 0.5536 -1.1000 0.1431
v 0.4749 -1.1000 0.2297
v 0.3449 -1.1000 0.2873
v 0.1560 -1.1000 0.3163
v -0.1560 -1.1000 0.3163
v -0.3449 -1.1000 0.2873
v -0.4749 -1.1000 0.2297
v -0.5536 -1.1000 0.1431
v -0.5800 -1.1000 0.0000
v -0.5536 -1.1000 -0.1431
v -0.4749 -1.1000 -0.2297
v -0.3449 -1.1000 -0.2873
v -0.1560 -1.1000 -0.3163
v 0.1560 -1.1000 -0.3163
v 0.3449 -1.1000 -0.2873
v 0.4749 -1.1000 -0.2297
v 0.5536 -1.1000 -0.1431
v 0.6020 -0.9500 0.0000
v 0.5746 -0.9500 0.1467
v 0.4929 -0.9500 0.2355
v 0.3580 -0.9500 0.2945
v 0.1619 -0.9500 0.3243
v -0.1619 -0.9500 0.3243
v -0.3580 -0.9500 0.2945
v -0.4929 -0.9500 0.2355
v -0.5746 -0.9500 0.1467
v -0.6020 -0.9500 0.0000
v -0.5746 -0.9500 -0.1467
v -0.4929 -0.9500 -0.2355
v -0.3580 -0.9500 -0.2945
v -0.1619 -0.9500 -0.3243
v 0.1619 -0.9500 -0.3243
v 0.3580 -0.9500 -0.2945
v 0.4929 -0.9500 -0.2355
v 0.5746 -0.9500 -0.1467
v 0.6240 -0.8000 0.0000
v 0.5956 -0.8000 0.1503
v 0.5109 -0.8000 0.2412
v 0.3710 -0.8000 0.3016
v 0.1679 -0.8000 0.3322
v -0.1679 -0.8000 0.3322
v -0.3710 -0.8000 0.3016
v -0.5109 -0.8000 0.2412
v -0.5956 -0.8000 0.1503
v -0.6240 -0.8000 0.0000
v -0.5956 -0.8000 -0.1503
v -0.5109 -0.8000 -0.2412
v -0.3710 -0.8000 -0.3016
v -0.1679 -0.8000 -0.3322
v 0.1679 -0.8000 -0.3322
v 0.3710 -0.8000 -0.3016
v 0.5109 -0.8000 -0.2412
v 0.5956 -0.8000 -0.1503
v 0.6460 -0.6500 0.0000
v 0.6166 -0.6500 0.1538
v 0.5290 -0.6500 0.2470
v 0.3841 -0.6500 0.3088
v 0.1738 -0.6500 0.3401
v -0.1738 -0.6500 0.3401
v -0.3841 -0.6500 0.3088
v -0.5290 -0.6500 0.2470
v -0.6166 -0.6500 0.1538
v -0.6460 -0.6500 0.0000
v -0.6166 -0.6500 -0.1538
v -0.5290 -0.6500 -0.2470
v -0.3841 -0.6500 -0.3088
v -0.1738 -0.6500 -0.3401
v 0.1738 -0.6500 -0.3401
v 0.3841 -0.6500 -0.3088
v 0.5290 -0.6500 -0.2470
v 0.6166 -0.6500 -0.1538
v 0.6680 -0.5000 0.0000
v 0.6376 -0.5000 0.1574
v 0.5470 -0.5000 0.2527
v 0.3972 -0.5000 0.3160
v 0.1797 -0.5000 0.3480
v -0.1797 -0.5000 0.3480
v -0.3972 -0.5000 0.3160
v -0.5470 -0.5000 0.2527
v -0.6376 -0.5000 0.1574
v -0.6680 -0.5000 0.0000
v -0.6376 -0.5000 -0.1574
v -0.5470 -0.5000 -0.2527
v -0.3972 -0.5000 -0.3160
v -0.1797 -0.5000 -0.3480
v 0.1797 -0.5000 -0.3480
v 0.3972 -0.5000 -0.3160
v 0.5470 -0.5000 -0.2527
v 0.6376 -0.5000 -0.1574
v 0.6900 -0.3500 0.0000
v 0.6585 -0.3500 0.1610
v 0.5650 -0.3500 0.2584
v 0.4103 -0.3500 0.3232
v 0.1856 -0.3500 0.3559
v -0.1856 -0.3500 0.3559
v -0.4103 -0.3500 0.3232
v -0.5650 -0.3500 0.2584
v -0.6585 -0.3500 0.1610
v -0.6900 -0.3500 0.0000
v -0.6585 -0.3500 -0.1610
v -0.5650 -0.3500 -0.2584
v -0.4103 -0.3500 -0.3232
v -0.1856 -0.3500 -0.3559
v 0.1856 -0.3500 -0.3559
v 0.4103 -0.3500 -0.3232
v 0.5650 -0.3500 -0.2584
v 0.6585 -0.3500 -0.1610
v 0.7120 -0.2000 0.0000
v 0.6795 -0.2000 0.1646
v 0.5830 -0.2000 0.2642
v 0.4234 -0.2000 0.3304
v 0.1915 -0.2000 0.3638
v -0.1915 -0.2000 0.3638
v -0.4234 -0.2000 0.3304
v -0.5830 -0.2000 0.2642
v -0.6795 -0.2000 0.1646
v -0.7120 -0.2000 0.0000
v -0.6795 -0.2000 -0.1646
v -0.5830 -0.2000 -0.2642
v -0.4234 -0.2000 -0.3304
v -0.1915 -0.2000 -0.3638
v 0.1915 -0.2000 -0.3638
v 0.4234 -0.2000 -0.3304
v 0.5830 -0.2000 -0.2642
v 0.6795 -0.2000 -0.1646
v 0.7340 -0.0500 0.0000
v 0.7005 -0.0500 0.1682
v 0.6010 -0.0500 0.2699
v 0.4364 -0.0500 0.3375
v 0.1974 -0.0500 0.3717
v -0.1974 -0.0500 0.3717
v -0.4364 -0.0500 0.3375
v -0.6010 -0.0500 0.2699
v -0.7005 -0.0500 0.1682
v -0.7340 -0.0500 0.0000
v -0.7005 -0.0500 -0.1682
v -0.6010 -0.0500 -0.2699
v -0.4364 -0.0500 -0.3375
v -0.1974 -0.0500 -0.3717
v 0.1974 -0.0500 -0.3717
v 0.4364 -0.0500 -0.3375
v 0.6010 -0.0500 -0.2699
v 0.7005 -0.0500 -0.1682
v 0.7560 0.1000 0.0000
v 0.7215 0.1000 0.1717
v 0.6190 0.1000 0.2757
v 0.4495 0.1000 0.3447
v 0.2034 0.1000 0.3796
v -0.2034 0.1000 0.3796
v -0.4495 0.1000 0.3447
v -0.6190 0.1000 0.2757
v -0.7215 0.1000 0.1717
v -0.7560 0.1000 0.0000
v -0.7215 0.1000 -0.1717
v -0.6190 0.1000 -0.2757
v -0.4495 0.1000 -0.3447
v -0.2034 0.1000 -0.3796
v 0.2034 0.1000 -0.3796
v 0.4495 0.1000 -0.3447
v 0.6190 0.1000 -0.2757
v 0.7215 0.1000 -0.1717
v 0.7780 0.2500 0.0000
v 0.7425 0.2500 0.1753
v 0.6370 0.2500 0.2814
v 0.4626 0.2500 0.3519
v 0.2093 0.2500 0.3875
v -0.2093 0.2500 0.3875
v -0.4626 0.2500 0.3519
v -0.6370 0.2500 0.2814
v -0.7425 0.2500 0.1753
v -0.7780 0.2500 0.0000
v -0.7425 0.2500 -0.1753
v -0.6370 0.2500 -0.2814
v -0.4626 0.2500 -0.3519
v -0.2093 0.2500 -0.3875
v 0.2093 0.2500 -0.3875
v 0.4626 0.2500 -0.3519
v 0.6370 0.2500 -0.2814
v 0.7425 0.2500 -0.1753
v 0.8000 0.4000 0.0000
v 0.7635 0.4000 0.1789
v 0.6551 0.4000 0.2872
v 0.4757 0.4000 0.3591
v 0.2152 0.4000 0.3954
v -0.2152 0.4000 0.3954
v -0.4757 0.4000 0.3591
v -0.6551 0.4000 0.2872
v -0.7635 0.4000 0.1789
v -0.8000 0.4000 0.0000
v -0.7635 0.4000 -0.1789
v -0.6551 0.4000 -0.2872
v -0.4757 0.4000 -0.3591
v -0.2152 0.4000 -0.3954
v 0.2152 0.4000 -0.3954
v 0.4757 0.4000 -0.3591
v 0.6551 0.4000 -0.2872
v 0.7635 0.4000 -0.1789
v 0.0000 -1.2500 0.0000
v 0.7500 0.3500 0.2800
v 0.7750 0.4900 0.2425
v 0.7933 0.5925 0.1400
v 0.8000 0.6300 0.0000
v 0.7933 0.5925 -0.1400
v 0.7750 0.4900 -0.2425
v 0.7500 0.3500 -0.2800
v 0.7250 0.2100 -0.2425
v 0.7067 0.1075 -0.1400
v 0.7000 0.0700 -0.0000
v 0.7067 0.1075 0.1400
v 0.7250 0.2100 0.2425
v 0.8375 0.1944 0.2650
v 0.8625 0.3269 0.2295
v 0.8808 0.4239 0.1325
v 0.8875 0.4594 0.0000
v 0.8808 0.4239 -0.1325
v 0.8625 0.3269 -0.2295
v 0.8375 0.1944 -0.2650
v 0.8125 0.0619 -0.2295
v 0.7942 -0.0351 -0.1325
v 0.7875 -0.0706 -0.0000
v 0.7942 -0.0351 0.1325
v 0.8125 0.0619 0.2295
v 0.9250 0.0434 0.2500
v 0.9500 0.1684 0.2165
v 0.9683 0.2599 0.1250
v 0.9750 0.2934 0.0000
v 0.9683 0.2599 -0.1250
v 0.9500 0.1684 -0.2165
v 0.9250 0.0434 -0.2500
v 0.9000 -0.0816 -0.2165
v 0.8817 -0.1731 -0.1250
v 0.8750 -0.2066 -0.0000
v 0.8817 -0.1731 0.1250
v 0.9000 -0.0816 0.2165
v 1.0125 -0.0989 0.2350
v 1.0375 0.0186 0.2035
v 1.0558 0.1046 0.1175
v 1.0625 0.1361 0.0000
v 1.0558 0.1046 -0.1175
v 1.0375 0.0186 -0.2035
v 1.0125 -0.0989 -0.2350
v 0.9875 -0.2164 -0.2035
v 0.9692 -0.3024 -0.1175
v 0.9625 -0.3339 -0.0000
v 0.9692 -0.3024 0.1175
v 0.9875 -0.2164 0.2035
v 1.1000 -0.2300 0.2200
v 1.1250 -0.1200 0.1905
v 1.1433 -0.0395 0.1100
v 1.1500 -0.0100 0.0000
v 1.1433 -0.0395 -0.1100
v 1.1250 -0.1200 -0.1905
v 1.1000 -0.2300 -0.2200
v 1.0750 -0.3400 -0.1905
v 1.0567 -0.4205 -0.1100
v 1.0500 -0.4500 -0.0000
v 1.0567 -0.4205 0.1100
v 1.0750 -0.3400 0.1905
v 1.1875 -0.3489 0.2050
v 1.2125 -0.2464 0.1775
v 1.2308 -0.1714 0.1025
v 1.2375 -0.1439 0.0000
v 1.2308 -0.1714 -0.1025
v 1.2125 -0.2464 -0.1775
v 1.1875 -0.3489 -0.2050
v 1.1625 -0.4514 -0.1775
v 1.1442 -0.5264 -0.1025
v 1.1375 -0.5539 -0.0000
v 1.1442 -0.5264 0.1025
v 1.1625 -0.4514 0.1775
v 1.2750 -0.4566 0.1900
v 1.3000 -0.3616 0.1645
v 1.3183 -0.2920 0.0950
v 1.3250 -0.2666 0.0000
v 1.3183 -0.2920 -0.0950
v 1.3000 -0.3616 -0.1645
v 1.2750 -0.4566 -0.1900
v 1.2500 -0.5516 -0.1645
v 1.2317 -0.6211 -0.0950
v 1.2250 -0.6466 -0.0000
v 1.2317 -0.6211 0.0950
v 1.2500 -0.5516 0.1645
v 1.3625 -0.5556 0.1750
v 1.3875 -0.4681 0.1516
v 1.4058 -0.4041 0.0875
v 1.4125 -0.3806 0.0000
v 1.4058 -0.4041 -0.0875
v 1.3875 -0.4681 -0.1516
v 1.3625 -0.5556 -0.1750
v 1.3375 -0.6431 -0.1516
v 1.3192 -0.7072 -0.0875
v 1.3125 -0.7306 -0.0000
v 1.3192 -0.7072 0.0875
v 1.3375 -0.6431 0.1516
v 1.4500 -0.6500 0.1600
v 1.4750 -0.5700 0.1386
v 1.4933 -0.5114 0.0800
v 1.5000 -0.4900 0.0000
v 1.4933 -0.5114 -0.0800
v 1.4750 -0.5700 -0.1386
v 1.4500 -0.6500 -0.1600
v 1.4250 -0.7300 -0.1386
v 1.4067 -0.7886 -0.0800
v 1.4000 -0.8100 -0.0000
v 1.4067 -0.7886 0.0800
v 1.4250 -0.7300 0.1386
v 1.4500 -0.6500 0.0000
v -0.7500 0.3500 0.2800
v -0.7750 0.4900 0.2425
v -0.7933 0.5925 0.1400
v -0.8000 0.6300 0.0000
v -0.7933 0.5925 -0.1400
v -0.7750 0.4900 -0.2425
v -0.7500 0.3500 -0.2800
v -0.7250 0.2100 -0.2425
v -0.7067 0.1075 -0.1400
v -0.7000 0.0700 -0.0000
v -0.7067 0.1075 0.1400
v -0.7250 0.2100 0.2425
v -0.8375 0.1944 0.2650
v -0.8625 0.3269 0.2295
v -0.8808 0.4239 0.1325
v -0.8875 0.4594 0.0000
v -0.8808 0.4239 -0.1325
v -0.8625 0.3269 -0.2295
v -0.8375 0.1944 -0.2650
v -0.8125 0.0619 -0.2295
v -0.7942 -0.0351 -0.1325
v -0.7875 -0.0706 -0.0000
v -0.7942 -0.0351 0.1325
v -0.8125 0.0619 0.2295
v -0.9250 0.0434 0.2500
v -0.9500 0.1684 0.2165
v -0.9683 0.2599 0.1250
v -0.9750 0.2934 0.0000
v -0.9683 0.2599 -0.1250
v -0.9500 0.1684 -0.2165
v -0.9250 0.0434 -0.2500
v -0.9000 -0.0816 -0.2165
v -0.8817 -0.1731 -0.1250
v -0.8750 -0.2066 -0.0000
v -0.8817 -0.1731 0.1250
v -0.9000 -0.0816 0.2165
v -1.0125 -0.0989 0.2350
v -1.0375 0.0186 0.2035
v -1.0558 0.1046 0.1175
v -1.0625 0.1361 0.0000
v -1.0558 0.1046 -0.1175
v -1.0375 0.0186 -0.2035
v -1.0125 -0.0989 -0.2350
v -0.9875 -0.2164 -0.2035
v -0.9692 -0.3024 -0.1175
v -0.9625 -0.3339 -0.0000
v -0.9692 -0.3024 0.1175
v -0.9875 -0.2164 0.2035
v -1.1000 -0.2300 0.2200
v -1.1250 -0.1200 0.1905
v -1.1433 -0.0395 0.1100
v -1.1500 -0.0100 0.0000
v -1.1433 -0.0395 -0.1100
v -1.1250 -0.1200 -0.1905
v -1.1000 -0.2300 -0.2200
v -1.0750 -0.3400 -0.1905
v -1.0567 -0.4205 -0.1100
v -1.0500 -0.4500 -0.0000
v -1.0567 -0.4205 0.1100
v -1.0750 -0.3400 0.1905
v -1.1875 -0.3489 0.2050
v -1.2125 -0.2464 0.1775
v -1.2308 -0.1714 0.1025
v -1.2375 -0.1439 0.0000
v -1.2308 -0.1714 -0.1025
v -1.2125 -0.2464 -0.1775
v -1.1875 -0.3489 -0.2050
v -1.1625 -0.4514 -0.1775
v -1.1442 -0.5264 -0.1025
v -1.1375 -0.5539 -0.0000
v -1.1442 -0.5264 0.1025
v -1.1625 -0.4514 0.1775
v -1.2750 -0.4566 0.1900
v -1.3000 -0.3616 0.1645
v -1.3183 -0.2920 0.0950
v -1.3250 -0.2666 0.0000
v -1.3183 -0.2920 -0.0950
v -1.3000 -0.3616 -0.1645
v -1.2750 -0.4566 -0.1900
v -1.2500 -0.5516 -0.1645
v -1.2317 -0.6211 -0.0950
v -1.2250 -0.6466 -0.0000
v -1.2317 -0.6211 0.0950
v -1.2500 -0.5516 0.1645
v -1.3625 -0.5556 0.1750
v -1.3875 -0.4681 0.1516
v -1.4058 -0.4041 0.0875
v -1.4125 -0.3806 0.0000
v -1.4058 -0.4041 -0.0875
v -1.3875 -0.4681 -0.1516
v -1.3625 -0.5556 -0.1750
v -1.3375 -0.6431 -0.1516
v -1.3192 -0.7072 -0.0875
v -1.3125 -0.7306 -0.0000
v -1.3192 -0.7072 0.0875
v -1.3375 -0.6431 0.1516
v -1.4500 -0.6500 0.1600
v -1.4750 -0.5700 0.1386
v -1.4933 -0.5114 0.0800
v -1.5000 -0.4900 0.0000
v -1.4933 -0.5114 -0.0800
v -1.4750 -0.5700 -0.1386
v -1.4500 -0.6500 -0.1600
v -1.4250 -0.7300 -0.1386
v -1.4067 -0.7886 -0.0800
v -1.4000 -0.8100 -0.0000
v -1.4067 -0.7886 0.0800
v -1.4250 -0.7300 0.1386
v -1.4500 -0.6500 0.0000
v 0.4100 0.4500 -0.0500
v 0.3694 0.4500 0.1149
v 0.2556 0.4500 0.1283
v 0.0912 0.4500 0.1723
v -0.0912 0.4500 0.1723
v -0.2556 0.4500 0.1283
v -0.3694 0.4500 0.1149
v -0.4100 0.4500 -0.0500
v -0.3694 0.4500 -0.2149
v -0.2556 0.4500 -0.3471
v -0.0912 0.4500 -0.4205
v 0.0912 0.4500 -0.4205
v 0.2556 0.4500 -0.3471
v 0.3694 0.4500 -0.2149
v 0.4394 0.5429 -0.0500
v 0.3959 0.5429 0.1180
v 0.2740 0.5429 0.1316
v 0.0978 0.5429 0.1765
v -0.0978 0.5429 0.1765
v -0.2740 0.5429 0.1316
v -0.3959 0.5429 0.1180
v -0.4394 0.5429 -0.0500
v -0.3959 0.5429 -0.2180
v -0.2740 0.5429 -0.3527
v -0.0978 0.5429 -0.4274
v 0.0978 0.5429 -0.4274
v 0.2740 0.5429 -0.3527
v 0.3959 0.5429 -0.2180
v 0.4590 0.6357 -0.0500
v 0.4135 0.6357 0.1211
v 0.2862 0.6357 0.1350
v 0.1021 0.6357 0.1806
v -0.1021 0.6357 0.1806
v -0.2862 0.6357 0.1350
v -0.4135 0.6357 0.1211
v -0.4590 0.6357 -0.0500
v -0.4135 0.6357 -0.2211
v -0.2862 0.6357 -0.3583
v -0.1021 0.6357 -0.4344
v 0.1021 0.6357 -0.4344
v 0.2862 0.6357 -0.3583
v 0.4135 0.6357 -0.2211
v 0.4688 0.7286 -0.0500
v 0.4224 0.7286 0.1242
v 0.2923 0.7286 0.1383
v 0.1043 0.7286 0.1848
v -0.1043 0.7286 0.1848
v -0.2923 0.7286 0.1383
v -0.4224 0.7286 0.1242
v -0.4688 0.7286 -0.0500
v -0.4224 0.7286 -0.2242
v -0.2923 0.7286 -0.3638
v -0.1043 0.7286 -0.4414
v 0.1043 0.7286 -0.4414
v 0.2923 0.7286 -0.3638
v 0.4224 0.7286 -0.2242
v 0.4688 0.8214 -0.0500
v 0.4224 0.8214 0.1273
v 0.2923 0.8214 0.1417
v 0.1043 0.8214 0.1890
v -0.1043 0.8214 0.1890
v -0.2923 0.8214 0.1417
v -0.4224 0.8214 0.1273
v -0.4688 0.8214 -0.0500
v -0.4224 0.8214 -0.2273
v -0.2923 0.8214 -0.3694
v -0.1043 0.8214 -0.4483
v 0.1043 0.8214 -0.4483
v 0.2923 0.8214 -0.3694
v 0.4224 0.8214 -0.2273
v 0.4590 0.9143 -0.0500
v 0.4135 0.9143 0.1304
v 0.2862 0.9143 0.1450
v 0.1021 0.9143 0.1932
v -0.1021 0.9143 0.1932
v -0.2862 0.9143 0.1450
v -0.4135 0.9143 0.1304
v -0.4590 0.9143 -0.0500
v -0.4135 0.9143 -0.2304
v -0.2862 0.9143 -0.3750
v -0.1021 0.9143 -0.4553
v 0.1021 0.9143 -0.4553
v 0.2862 0.9143 -0.3750
v 0.4135 0.9143 -0.2304
v 0.4394 1.0071 -0.0500
v 0.3959 1.0071 0.1335
v 0.2740 1.0071 0.2806
v 0.0978 1.0071 0.3623
v -0.0978 1.0071 0.3623
v -0.2740 1.0071 0.2806
v -0.3959 1.0071 0.1335
v -0.4394 1.0071 -0.0500
v -0.3959 1.0071 -0.2335
v -0.2740 1.0071 -0.3806
v -0.0978 1.0071 -0.4623
v 0.0978 1.0071 -0.4623
v 0.2740 1.0071 -0.3806
v 0.3959 1.0071 -0.2335
v 0.4100 1.1000 -0.0500
v 0.3694 1.1000 0.1366
v 0.2556 1.1000 0.2862
v 0.0912 1.1000 0.3692
v -0.0912 1.1000 0.3692
v -0.2556 1.1000 0.2862
v -0.3694 1.1000 0.1366
v -0.4100 1.1000 -0.0500
v -0.3694 1.1000 -0.2366
v -0.2556 1.1000 -0.3862
v -0.0912 1.1000 -0.4692
v 0.0912 1.1000 -0.4692
v 0.2556 1.1000 -0.3862
v 0.3694 1.1000 -0.2366
v 0.0000 1.1500 -0.0500
v -0.3800 -0.8500 0.3800
v -0.2533 -0.8500 0.3800
v -0.1267 -0.8500 0.3800
v 0.0000 -0.8500 0.3800
v 0.1267 -0.8500 0.3800
v 0.2533 -0.8500 0.3800
v 0.3800 -0.8500 0.3800
v -0.3650 -0.7300 0.4224
v -0.2433 -0.7300 0.4224
v -0.1217 -0.7300 0.4224
v 0.0000 -0.7300 0.4224
v 0.1217 -0.7300 0.4224
v 0.2433 -0.7300 0.4224
v 0.3650 -0.7300 0.4224
v -0.3500 -0.6100 0.4400
v -0.2333 -0.6100 0.4400
v -0.1167 -0.6100 0.4400
v 0.0000 -0.6100 0.4400
v 0.1167 -0.6100 0.4400
v 0.2333 -0.6100 0.4400
v 0.3500 -0.6100 0.4400
v -0.3350 -0.4900 0.4224
v -0.2233 -0.4900 0.4224
v -0.1117 -0.4900 0.4224
v 0.0000 -0.4900 0.4224
v 0.1117 -0.4900 0.4224
v 0.2233 -0.4900 0.4224
v 0.3350 -0.4900 0.4224
v -0.3200 -0.3700 0.3800
v -0.2133 -0.3700 0.3800
v -0.1067 -0.3700 0.3800
v 0.0000 -0.3700 0.3800
v 0.1067 -0.3700 0.3800
v 0.2133 -0.3700 0.3800
v 0.3200 -0.3700 0.3800

f 1 19 20
f 1 20 2
f 2 20 21
f 2 21 3
f 3 21 22
f 3 22 4
f 4 22 23
f 4 23 5
f 5 23 24
f 5 24 6
f 6 24 25
f 6 25 7
f 7 25 26
f 7 26 8
f 8 26 27
f 8 27 9
f 9 27 28
f 9 28 10
f 10 28 29
f 10 29 11
f 11 29 30
f 11 30 12
f 12 30 31
f 12 31 13
f 13 31 32
f 13 32 14
f 14 32 33
f 14 33 15
f 15 33 34
f 15 34 16
f 16 34 35
f 16 35 17
f 17 35 36
f 17 36 18
f 18 36 19
f 18 19 1
f 19 37 38
f 19 38 20
f 20 38 39
f 20 39 21
f 21 39 40
f 21 40 22
f 22 40 41
f 22 41 23
f 23 41 42
f 23 42 24
f 24 42 43
f 24 43 25
f 25 43 44
f 25 44 26
f 26 44 45
f 26 45 27
f 27 45 46
f 27 46 28
f 28 46 47
f 28 47 29
f 29 47 48
f 29 48 30
f 30 48 49
f 30 49 31
f 31 49 50
f 31 50 32
f 32 50 51
f 32 51 33
f 33 51 52
f 33 52 34
f 34 52 53
f 34 53 35
f 35 53 54
f 35 54 36
f 36 54 37
f 36 37 19
f 37 55 56
f 37 56 38
f 38 56 57
f 38 57 39
f 39 57 58
f 39 58 40
f 40 58 59
f 40 59 41
f 41 59 60
f 41 60 42
f 42 60 61
f 42 61 43
f 43 61 62
f 43 62 44
f 44 62 63
f 44 63 45
f 45 63 64
f 45 64 46
f 46 64 65
f 46 65 47
f 47 65 66
f 47 66 48
f 48 66 67
f 48 67 49
f 49 67 68
f 49 68 50
f 50 68 69
f 50 69 51
f 51 69 70
f 51 70 52
f 52 70 71
f 52 71 53
f 53 71 72
f 53 72 54
f 54 72 55
f 54 55 37
f 55 73 74
f 55 74 56
f 56 74 75
f 56 75 57
f 57 75 76
f 57 76 58
f 58 76 77
f 58 77 59
f 59 77 78
f 59 78 60
f 60 78 79
f 60 79 61
f 61 79 80
f 61 80 62
f 62 80 81
f 62 81 63
f 63 81 82
f 63 82 64
f 64 82 83
f 64 83 65
f 65 83 84
f 65 84 66
f 66 84 85
f 66 85 67
f 67 85 86
f 67 86 68
f 68 86 87
f 68 87 69
f 69 87 88
f 69 88 70
f 70 88 89
f 70 89 71
f 71 89 90
f 71 90 72
f 72 90 73
f 72 73 55
f 73 91 92
f 73 92 74
f 74 92 93
f 74 93 75
f 75 93 94
f 75 94 76
f 76 94 95
f 76 95 77
f 77 95 96
f 77 96 78
f 78 96 97
f 78 97 79
f 79 97 98
f 79 98 80
f 80 98 99
f 80 99 81
f 81 99 100
f 81 100 82
f 82 100 101
f 82 101 83
f 83 101 102
f 83 102 84
f 84 102 103
f 84 103 85
f 85 103 104
f 85 104 86
f 86 104 105
f 86 105 87
f 87 105 106
f 87 106 88
f 88 106 107
f 88 107 89
f 89 107 108
f 89 108 90
f 90 108 91
f 90 91 73
f 91 109 110
f 91 110 92
f 92 110 111
f 92 111 93
f 93 111 112
f 93 112 94
f 94 112 113
f 94 113 95
f 95 113 114
f 95 114 96
f 96 114 115
f 96 115 97
f 97 115 116
f 97 116 98
f 98 116 117
f 98 117 99
f 99 117 118
f 99 118 100
f 100 118 119
f 100 119 101
f 101 119 120
f 101 120 102
f 102 120 121
f 102 121 103
f 103 121 122
f 103 122 104
f 104 122 123
f 104 123 105
f 105 123 124
f 105 124 106
f 106 124 125
f 106 125 107
f 107 125 126
f 107 126 108
f 108 126 109
f 108 109 91
f 109 127 128
f 109 128 110
f 110 128 129
f 110 129 111
f 111 129 130
f 111 130 112
f 112 130 131
f 112 131 113
f 113 131 132
f 113 132 114
f 114 132 133
f 114 133 115
f 115 133 134
f 115 134 116
f 116 134 135
f 116 135 117
f 117 135 136
f 117 136 118
f 118 136 137
f 118 137 119
f 119 137 138
f 119 138 120
f 120 138 139
f 120 139 121
f 121 139 140
f 121 140 122
f 122 140 141
f 122 141 123
f 123 141 142
f 123 142 124
f 124 142 143
f 124 143 125
f 125 143 144
f 125 144 126
f 126 144 127
f 126 127 109
f 127 145 146
f 127 146 128
f 128 146 147
f 128 147 129
f 129 147 148
f 129 148 130
f 130 148 149
f 130 149 131
f 131 149 150
f 131 150 132
f 132 150 151
f 132 151 133
f 133 151 152
f 133 152 134
f 134 152 153
f 134 153 135
f 135 153 154
f 135 154 136
f 136 154 155
f 136 155 137
f 137 155 156
f 137 156 138
f 138 156 157
f 138 157 139
f 139 157 158
f 139 158 140
f 140 158 159
f 140 159 141
f 141 159 160
f 141 160 142
f 142 160 161
f 142 161 143
f 143 161 162
f 143 162 144
f 144 162 145
f 144 145 127
f 145 163 164
f 145 164 146
f 146 164 165
f 146 165 147
f 147 165 166
f 147 166 148
f 148 166 167
f 148 167 149
f 149 167 168
f 149 168 150
f 150 168 169
f 150 169 151
f 151 169 170
f 151 170 152
f 152 170 171
f 152 171 153
f 153 171 172
f 153 172 154
f 154 172 173
f 154 173 155
f 155 173 174
f 155 174 156
f 156 174 175
f 156 175 157
f 157 175 176
f 157 176 158
f 158 176 177
f 158 177 159
f 159 177 178
f 159 178 160
f 160 178 179
f 160 179 161
f 161 179 180
f 161 180 162
f 162 180 163
f 162 163 145
f 163 181 182
f 163 182 164
f 164 182 183
f 164 183 165
f 165 183 184
f 165 184 166
f 166 184 185
f 166 185 167
f 167 185 186
f 167 186 168
f 168 186 187
f 168 187 169
f 169 187 188
f 169 188 170
f 170 188 189
f 170 189 171
f 171 189 190
f 171 190 172
f 172 190 191
f 172 191 173
f 173 191 192
f 173 192 174
f 174 192 193
f 174 193 175
f 175 193 194
f 175 194 176
f 176 194 195
f 176 195 177
f 177 195 196
f 177 196 178
f 178 196 197
f 178 197 179
f 179 197 198
f 179 198 180
f 180 198 181
f 180 181 163
f 1 199 2
f 2 199 3
f 3 199 4
f 4 199 5
f 5 199 6
f 6 199 7
f 7 199 8
f 8 199 9
f 9 199 10
f 10 199 11
f 11 199 12
f 12 199 13
f 13 199 14
f 14 199 15
f 15 199 16
f 16 199 17
f 17 199 18
f 18 199 1
f 200 212 213
f 200 213 201
f 201 213 214
f 201 214 202
f 202 214 215
f 202 215 203
f 203 215 216
f 203 216 204
f 204 216 217
f 204 217 205
f 205 217 218
f 205 218 206
f 206 218 219
f 206 219 207
f 207 219 220
f 207 220 208
f 208 220 221
f 208 221 209
f 209 221 222
f 209 222 210
f 210 222 223
f 210 223 211
f 211 223 212
f 211 212 200
f 212 224 225
f 212 225 213
f 213 225 226
f 213 226 214
f 214 226 227
f 214 227 215
f 215 227 228
f 215 228 216
f 216 228 229
f 216 229 217
f 217 229 230
f 217 230 218
f 218 230 231
f 218 231 219
f 219 231 232
f 219 232 220
f 220 232 233
f 220 233 221
f 221 233 234
f 221 234 222
f 222 234 235
f 222 235 223
f 223 235 224
f 223 224 212
f 224 236 237
f 224 237 225
f 225 237 238
f 225 238 226
f 226 238 239
f 226 239 227
f 227 239 240
f 227 240 228
f 228 240 241
f 228 241 229
f 229 241 242
f 229 242 230
f 230 242 243
f 230 243 231
f 231 243 244
f 231 244 232
f 232 244 245
f 232 245 233
f 233 245 246
f 233 246 234
f 234 246 247
f 234 247 235
f 235 247 236
f 235 236 224
f 236 248 249
f 236 249 237
f 237 249 250
f 237 250 238
f 238 250 251
f 238 251 239
f 239 251 252
f 239 252 240
f 240 252 253
f 240 253 241
f 241 253 254
f 241 254 242
f 242 254 255
f 242 255 243
f 243 255 256
f 243 256 244
f 244 256 257
f 244 257 245
f 245 257 258
f 245 258 246
f 246 258 259
f 246 259 247
f 247 259 248
f 247 248 236
f 248 260 261
f 248 261 249
f 249 261 262
f 249 262 250
f 250 262 263
f 250 263 251
f 251 263 264
f 251 264 252
f 252 264 265
f 252 265 253
f 253 265 266
f 253 266 254
f 254 266 267
f 254 267 255
f 255 267 268
f 255 268 256
f 256 268 269
f 256 269 257
f 257 269 270
f 257 270 258
f 258 270 271
f 258 271 259
f 259 271 260
f 259 260 248
f 260 272 273
f 260 273 261
f 261 273 274
f 261 274 262
f 262 274 275
f 262 275 263
f 263 275 276
f 263 276 264
f 264 276 277
f 264 277 265
f 265 277 278
f 265 278 266
f 266 278 279
f 266 279 267
f 267 279 280
f 267 280 268
f 268 280 281
f 268 281 269
f 269 281 282
f 269 282 270
f 270 282 283
f 270 283 271
f 271 283 272
f 271 272 260
f 272 284 285
f 272 285 273
f 273 285 286
f 273 286 274
f 274 286 287
f 274 287 275
f 275 287 288
f 275 288 276
f 276 288 289
f 276 289 277
f 277 289 290
f 277 290 278
f 278 290 291
f 278 291 279
f 279 291 292
f 279 292 280
f 280 292 293
f 280 293 281
f 281 293 294
f 281 294 282
f 282 294 295
f 282 295 283
f 283 295 284
f 283 284 272
f 284 296 297
f 284 297 285
f 285 297 298
f 285 298 286
f 286 298 299
f 286 299 287
f 287 299 300
f 287 300 288
f 288 300 301
f 288 301 289
f 289 301 302
f 289 302 290
f 290 302 303
f 290 303 291
f 291 303 304
f 291 304 292
f 292 304 305
f 292 305 293
f 293 305 306
f 293 306 294
f 294 306 307
f 294 307 295
f 295 307 296
f 295 296 284
f 296 308 297
f 297 308 298
f 298 308 299
f 299 308 300
f 300 308 301
f 301 308 302
f 302 308 303
f 303 308 304
f 304 308 305
f 305 308 306
f 306 308 307
f 307 308 296
f 309 310 322
f 309 322 321
f 310 311 323
f 310 323 322
f 311 312 324
f 311 324 323
f 312 313 325
f 312 325 324
f 313 314 326
f 313 326 325
f 314 315 327
f 314 327 326
f 315 316 328
f 315 328 327
f 316 317 329
f 316 329 328
f 317 318 330
f 317 330 329
f 318 319 331
f 318 331 330
f 319 320 332
f 319 332 331
f 320 309 321
f 320 321 332
f 321 322 334
f 321 334 333
f 322 323 335
f 322 335 334
f 323 324 336
f 323 336 335
f 324 325 337
f 324 337 336
f 325 326 338
f 325 338 337
f 326 327 339
f 326 339 338
f 327 328 340
f 327 340 339
f 328 329 341
f 328 341 340
f 329 330 342
f 329 342 341
f 330 331 343
f 330 343 342
f 331 332 344
f 331 344 343
f 332 321 333
f 332 333 344
f 333 334 346
f 333 346 345
f 334 335 347
f 334 347 346
f 335 336 348
f 335 348 347
f 336 337 349
f 336 349 348
f 337 338 350
f 337 350 349
f 338 339 351
f 338 351 350
f 339 340 352
f 339 352 351
f 340 341 353
f 340 353 352
f 341 342 354
f 341 354 353
f 342 343 355
f 342 355 354
f 343 344 356
f 343 356 355
f 344 333 345
f 344 345 356
f 345 346 358
f 345 358 357
f 346 347 359
f 346 359 358
f 347 348 360
f 347 360 359
f 348 349 361
f 348 361 360
f 349 350 362
f 349 362 361
f 350 351 363
f 350 363 362
f 351 352 364
f 351 364 363
f 352 353 365
f 352 365 364
f 353 354 366
f 353 366 365
f 354 355 367
f 354 367 366
f 355 356 368
f 355 368 367
f 356 345 357
f 356 357 368
f 357 358 370
f 357 370 369
f 358 359 371
f 358 371 370
f 359 360 372
f 359 372 371
f 360 361 373
f 360 373 372
f 361 362 374
f 361 374 373
f 362 363 375
f 362 375 374
f 363 364 376
f 363 376 375
f 364 365 377
f 364 377 376
f 365 366 378
f 365 378 377
f 366 367 379
f 366 379 378
f 367 368 380
f 367 380 379
f 368 357 369
f 368 369 380
f 369 370 382
f 369 382 381
f 370 371 383
f 370 383 382
f 371 372 384
f 371 384 383
f 372 373 385
f 372 385 384
f 373 374 386
f 373 386 385
f 374 375 387
f 374 387 386
f 375 376 388
f 375 388 387
f 376 377 389
f 376 389 388
f 377 378 390
f 377 390 389
f 378 379 391
f 378 391 390
f 379 380 392
f 379 392 391
f 380 369 381
f 380 381 392
f 381 382 394
f 381 394 393
f 382 383 395
f 382 395 394
f 383 384 396
f 383 396 395
f 384 385 397
f 384 397 396
f 385 386 398
f 385 398 397
f 386 387 399
f 386 399 398
f 387 388 400
f 387 400 399
f 388 389 401
f 388 401 400
f 389 390 402
f 389 402 401
f 390 391 403
f 390 403 402
f 391 392 404
f 391 404 403
f 392 381 393
f 392 393 404
f 393 394 406
f 393 406 405
f 394 395 407
f 394 407 406
f 395 396 408
f 395 408 407
f 396 397 409
f 396 409 408
f 397 398 410
f 397 410 409
f 398 399 411
f 398 411 410
f 399 400 412
f 399 412 411
f 400 401 413
f 400 413 412
f 401 402 414
f 401 414 413
f 402 403 415
f 402 415 414
f 403 404 416
f 403 416 415
f 404 393 405
f 404 405 416
f 405 406 417
f 406 407 417
f 407 408 417
f 408 409 417
f 409 410 417
f 410 411 417
f 411 412 417
f 412 413 417
f 413 414 417
f 414 415 417
f 415 416 417
f 416 405 417
f 418 432 433
f 418 433 419
f 419 433 434
f 419 434 420
f 420 434 435
f 420 435 421
f 421 435 436
f 421 436 422
f 422 436 437
f 422 437 423
f 423 437 438
f 423 438 424
f 424 438 439
f 424 439 425
f 425 439 440
f 425 440 426
f 426 440 441
f 426 441 427
f 427 441 442
f 427 442 428
f 428 442 443
f 428 443 429
f 429 443 444
f 429 444 430
f 430 444 445
f 430 445 431
f 431 445 432
f 431 432 418
f 432 446 447
f 432 447 433
f 433 447 448
f 433 448 434
f 434 448 449
f 434 449 435
f 435 449 450
f 435 450 436
f 436 450 451
f 436 451 437
f 437 451 452
f 437 452 438
f 438 452 453
f 438 453 439
f 439 453 454
f 439 454 440
f 440 454 455
f 440 455 441
f 441 455 456
f 441 456 442
f 442 456 457
f 442 457 443
f 443 457 458
f 443 458 444
f 444 458 459
f 444 459 445
f 445 459 446
f 445 446 432
f 446 460 461
f 446 461 447
f 447 461 462
f 447 462 448
f 448 462 463
f 448 463 449
f 449 463 464
f 449 464 450
f 450 464 465
f 450 465 451
f 451 465 466
f 451 466 452
f 452 466 467
f 452 467 453
f 453 467 468
f 453 468 454
f 454 468 469
f 454 469 455
f 455 469 470
f 455 470 456
f 456 470 471
f 456 471 457
f 457 471 472
f 457 472 458
f 458 472 473
f 458 473 459
f 459 473 460
f 459 460 446
f 460 474 475
f 460 475 461
f 461 475 476
f 461 476 462
f 462 476 477
f 462 477 463
f 463 477 478
f 463 478 464
f 464 478 479
f 464 479 465
f 465 479 480
f 465 480 466
f 466 480 481
f 466 481 467
f 467 481 482
f 467 482 468
f 468 482 483
f 468 483 469
f 469 483 484
f 469 484 470
f 470 484 485
f 470 485 471
f 471 485 486
f 471 486 472
f 472 486 487
f 472 487 473
f 473 487 474
f 473 474 460
f 474 488 489
f 474 489 475
f 475 489 490
f 475 490 476
f 476 490 491
f 476 491 477
f 477 491 492
f 477 492 478
f 478 492 493
f 478 493 479
f 479 493 494
f 479 494 480
f 480 494 495
f 480 495 481
f 481 495 496
f 481 496 482
f 482 496 497
f 482 497 483
f 483 497 498
f 483 498 484
f 484 498 499
f 484 499 485
f 485 499 500
f 485 500 486
f 486 500 501
f 486 501 487
f 487 501 488
f 487 488 474
f 488 502 503
f 488 503 489
f 489 503 504
f 489 504 490
f 490 504 505
f 490 505 491
f 491 505 506
f 491 506 492
f 492 506 507
f 492 507 493
f 493 507 508
f 493 508 494
f 494 508 509
f 494 509 495
f 495 509 510
f 495 510 496
f 496 510 511
f 496 511 497
f 497 511 512
f 497 512 498
f 498 512 513
f 498 513 499
f 499 513 514
f 499 514 500
f 500 514 515
f 500 515 501
f 501 515 502
f 501 502 488
f 502 516 517
f 502 517 503
f 503 517 518
f 503 518 504
f 504 518 519
f 504 519 505
f 505 519 520
f 505 520 506
f 506 520 521
f 506 521 507
f 507 521 522
f 507 522 508
f 508 522 523
f 508 523 509
f 509 523 524
f 509 524 510
f 510 524 525
f 510 525 511
f 511 525 526
f 511 526 512
f 512 526 527
f 512 527 513
f 513 527 528
f 513 528 514
f 514 528 529
f 514 529 515
f 515 529 516
f 515 516 502
f 516 517 530
f 517 518 530
f 518 519 530
f 519 520 530
f 520 521 530
f 521 522 530
f 522 523 530
f 523 524 530
f 524 525 530
f 525 526 530
f 526 527 530
f 527 528 530
f 528 529 530
f 529 516 530
f 531 538 539
f 531 539 532
f 532 539 540
f 532 540 533
f 533 540 541
f 533 541 534
f 534 541 542
f 534 542 535
f 535 542 543
f 535 543 536
f 536 543 544
f 536 544 537
f 538 545 546
f 538 546 539
f 539 546 547
f 539 547 540
f 540 547 548
f 540 548 541
f 541 548 549
f 541 549 542
f 542 549 550
f 542 550 543
f 543 550 551
f 543 551 544
f 545 552 553
f 545 553 546
f 546 553 554
f 546 554 547
f 547 554 555
f 547 555 548
f 548 555 556
f 548 556 549
f 549 556 557
f 549 557 550
f 550 557 558
f 550 558 551
f 552 559 560
f 552 560 553
f 553 560 561
f 553 561 554
f 554 561 562
f 554 562 555
f 555 562 563
f 555 563 556
f 556 563 564
f 556 564 557
f 557 564 565
f 557 565 558
